<?xml version="1.0" encoding="utf-8"?>
<!-- Generator: Adobe Illustrator 15.0.0, SVG Export Plug-In . SVG Version: 6.00 Build 0)  -->
<!DOCTYPE svg PUBLIC "-//W3C//DTD SVG 1.1//EN" "http://www.w3.org/Graphics/SVG/1.1/DTD/svg11.dtd">
<svg version="1.1" id="Layer_1" xmlns="http://www.w3.org/2000/svg" xmlns:xlink="http://www.w3.org/1999/xlink" x="0px" y="0px"
	 width="339.639px" height="461.528px" viewBox="0 0 339.639 461.528" enable-background="new 0 0 339.639 461.528"
	 xml:space="preserve">
<g enable-background="new    ">
	<path fill="#03573E" d="M106.607,86.248c-2.113,2.746-6.337,2.958-10.879,2.535c-1.584,6.231-3.063,12.463-4.436,18.801
		c-2.324,11.513-3.908,23.025-2.429,29.046c0.528,2.007,1.162,2.007,2.324,0.316c2.007-3.062,7.182-12.252,10.14-18.589l2.324-4.859
		c0.211-0.422,0.845-0.105,0.634,0.317l-2.324,4.858c-2.958,6.337-8.133,15.632-10.14,18.59c-1.056,1.584-1.901,2.218-3.802,1.689
		c-6.549-1.901-4.964-17.321-1.901-32.32c1.268-6.337,2.746-12.463,4.331-18.694c-4.542-0.739-8.767-0.951-9.928,0.422
		c-0.317,0.423-0.845-0.105-0.528-0.422c1.584-1.796,6.021-1.796,10.773-1.057l1.268-4.647c0.528-2.112,5.915-2.007,5.387,0
		l-1.374,5.387c4.331,0.528,8.239,0.528,10.034-1.795C106.29,85.508,106.818,85.931,106.607,86.248z"/>
	<path fill="#03573E" d="M121.181,113.815l-1.268,2.535c-3.168,6.231-8.978,17.744-11.724,21.019
		c-3.38,4.119-6.126,2.429-6.971-2.112c-0.739-4.014-0.211-10.352,0.951-15.738c1.056-5.069,1.162-5.492,1.795-8.133
		c0.422-2.007,6.021-2.007,5.492,0c-0.739,3.38-1.584,6.338-2.852,12.992c-0.951,4.646-1.584,9.083-1.479,11.724
		c0.105,2.746,1.162,2.429,2.535,0.845c2.641-3.274,8.555-14.787,11.724-21.019l1.162-2.43
		C120.759,113.076,121.393,113.392,121.181,113.815z M105.021,104.415c0-1.689,1.373-3.169,3.169-3.169
		c1.795,0,3.168,1.479,3.168,3.169c0,1.796-1.373,3.274-3.168,3.274C106.394,107.689,105.021,106.21,105.021,104.415z"/>
	<path fill="#03573E" d="M153.711,113.815l-1.479,2.957c-3.168,6.232-8.767,17.322-11.407,20.597
		c-0.951,1.161-1.69,1.373-3.168,1.056c-7.394-1.689-2.958-21.44-2.112-26.193c1.373-7.5-0.951-4.226-2.958-0.634
		c-3.274,5.703-5.387,11.407-8.027,17.427c-0.739,1.585-1.268,3.274-3.38,3.169c-3.168-0.105-3.485-3.696-3.063-6.549
		c0.634-4.753,1.69-9.822,2.641-14.259c0.528-2.007,5.915-2.007,5.492,0c-0.105,0.317-5.492,24.398-2.641,18.062
		c2.852-6.231,5.07-12.252,8.344-18.272c1.056-1.796,2.218-3.803,3.063-4.542c0.845-0.739,1.901-0.845,3.168-0.316
		c3.169,1.479,2.852,6.549,2.43,9.4c-1.479,8.449-3.063,19.223-2.007,21.652c0.422,0.95,1.267,0,1.584-0.423
		c2.641-3.38,8.556-14.787,11.724-21.019l1.162-2.43C153.289,113.076,153.923,113.392,153.711,113.815z"/>
	<path fill="#03573E" d="M175.364,113.815c-2.746,5.281-5.915,10.562-11.196,14.682c-2.852,2.218-6.971,3.38-9.823,0.211
		c-5.704-6.231-1.056-23.131,6.548-25.35c1.796-0.527,4.753,0,5.598,1.901c0.739,1.69-0.422,3.697-2.112,4.753
		c-1.69,1.057-3.803,1.585-5.704,1.585c-1.268,2.852-2.958,11.724-0.951,15.737c1.373,2.746,3.908,2.112,6.021,0.528
		c4.647-3.38,8.238-8.872,10.984-14.365C174.942,113.076,175.575,113.392,175.364,113.815z M158.993,110.858
		c1.69,0,3.485-0.528,4.964-1.373c2.641-1.796,2.641-5.281-0.105-4.647C161.95,105.259,160.26,107.689,158.993,110.858z"/>
	<path fill="#03573E" d="M223.421,113.815c-2.746,5.281-5.914,10.562-11.195,14.682c-2.852,2.218-6.971,3.38-9.822,0.211
		c-5.704-6.231-1.057-23.131,6.548-25.35c1.796-0.527,4.753,0,5.599,1.901c0.738,1.69-0.423,3.697-2.113,4.753
		c-1.689,1.057-3.803,1.585-5.703,1.585c-1.268,2.852-2.957,11.724-0.951,15.737c1.373,2.746,3.908,2.112,6.021,0.528
		c4.646-3.38,8.238-8.872,10.984-14.365C222.999,113.076,223.633,113.392,223.421,113.815z M207.05,110.858
		c1.69,0,3.486-0.528,4.965-1.373c2.641-1.796,2.641-5.281-0.105-4.647C210.008,105.259,208.317,107.689,207.05,110.858z"/>
	<path fill="#03573E" d="M255.952,113.815l-1.479,2.957c-3.169,6.232-8.768,17.322-11.408,20.597
		c-0.95,1.161-1.689,1.373-3.168,1.056c-7.394-1.689-2.957-21.44-2.112-26.193c1.373-7.5-0.95-4.226-2.958-0.634
		c-3.273,5.703-5.387,11.407-8.027,17.427c-0.738,1.585-1.268,3.274-3.379,3.169c-3.169-0.105-3.486-3.696-3.063-6.549
		c0.634-4.753,1.69-9.822,2.641-14.259c0.528-2.007,5.915-2.007,5.492,0c-0.105,0.317-5.492,24.398-2.641,18.062
		c2.853-6.231,5.069-12.252,8.345-18.272c1.056-1.796,2.218-3.803,3.062-4.542c0.846-0.739,1.901-0.845,3.168-0.316
		c3.17,1.479,2.853,6.549,2.43,9.4c-1.479,8.449-3.062,19.223-2.006,21.652c0.422,0.95,1.267,0,1.584-0.423
		c2.641-3.38,8.555-14.787,11.724-21.019l1.162-2.43C255.529,113.076,256.163,113.392,255.952,113.815z"/>
</g>
<g enable-background="new    ">
	<path fill="#03573E" d="M116.904,173.601l-1.267,2.535c-3.169,6.337-8.978,17.744-11.724,21.019
		c-0.951,1.056-1.795,1.479-3.063,1.056c-7.394-2.429-3.063-21.44-2.218-26.193c1.901-10.034-2.957-0.74-4.647,2.534
		c-3.274,6.338-5.598,12.041-5.809,12.569C87.224,189.338,83,189.022,83,186.91c0.105-3.169,3.168-18.167-0.422-10.457
		c-1.796,3.908-3.38,8.238-5.176,12.357c-0.739,1.585-1.373,3.274-3.485,3.169c-3.168-0.105-3.485-3.696-3.063-6.549
		c0.634-4.753,1.69-9.822,2.641-14.259c0.528-2.007,5.915-2.007,5.492,0c-0.105,0.317-5.387,24.398-2.535,18.062
		c1.901-4.33,3.591-8.978,5.492-13.202c0.845-2.007,2.324-3.908,4.014-3.803c4.753,0.316,3.168,8.767,2.641,11.936
		c1.056-2.535,2.852-6.232,4.753-9.929c0.95-1.796,3.38-6.549,4.753-7.816c0.951-0.739,1.901-0.845,3.168-0.316
		c3.274,1.479,2.958,6.549,2.429,9.4c-1.373,8.449-3.063,19.223-1.901,21.652c0.422,0.95,1.162,0,1.584-0.423
		c2.641-3.274,8.556-14.787,11.724-21.019l1.162-2.43C116.482,172.862,117.115,173.178,116.904,173.601z"/>
	<path fill="#03573E" d="M147.112,173.601l-1.267,2.535c-3.169,6.231-8.978,17.744-11.724,21.019
		c-2.535,2.957-4.647,2.852-6.021,0.739c-1.268-2.007-1.373-5.81-1.373-8.133c0.105-4.542,1.056-9.506,2.112-14.259l-2.429,4.858
		c-1.267,2.43-2.746,4.858-4.014,6.126c-1.901,1.901-4.964,2.535-6.654,0.105c-1.796-2.746-1.268-7.604-0.423-10.668
		c1.268-4.541,4.437-9.928,9.506-10.667c2.006-0.317,4.013,0.211,6.02,1.795l0.423-1.584c0.528-2.007,5.915-1.901,5.492,0
		c-1.901,8.449-6.021,22.181-5.704,30.419c0.105,2.852,1.268,2.323,2.535,0.845c2.641-3.274,8.556-14.787,11.724-21.019l1.162-2.43
		C146.69,172.862,147.323,173.178,147.112,173.601z M130.635,167.792c-3.803-3.062-7.816,4.014-9.083,6.866
		c-2.218,4.753-3.168,10.245-1.479,11.935c0.423,0.423,1.057,0.105,1.796-0.634c1.479-1.584,3.063-4.33,4.331-6.76
		c1.373-2.641,2.218-4.541,3.485-7.182L130.635,167.792z"/>
	<path fill="#03573E" d="M167.92,146.034c-2.113,2.746-6.337,2.958-10.879,2.535c-1.584,6.231-3.063,12.463-4.437,18.801
		c-2.323,11.513-3.908,23.025-2.429,29.046c0.528,2.007,1.162,2.007,2.324,0.316c2.007-3.062,7.182-12.252,10.14-18.589l2.324-4.859
		c0.211-0.422,0.845-0.105,0.634,0.317l-2.324,4.858c-2.958,6.337-8.133,15.632-10.14,18.59c-1.056,1.584-1.901,2.218-3.802,1.689
		c-6.549-1.901-4.964-17.321-1.901-32.32c1.268-6.337,2.746-12.463,4.331-18.694c-4.542-0.739-8.767-0.951-9.929,0.422
		c-0.316,0.423-0.845-0.105-0.528-0.422c1.584-1.796,6.021-1.796,10.773-1.057l1.268-4.647c0.528-2.112,5.915-2.007,5.386,0
		l-1.373,5.387c4.331,0.528,8.239,0.528,10.034-1.795C167.603,145.294,168.131,145.717,167.92,146.034z"/>
	<path fill="#03573E" d="M199.393,173.601l-1.268,2.535c-3.168,6.337-9.083,17.744-11.829,21.019
		c-1.901,2.323-4.858,2.429-6.337-0.317c-3.169-5.809,2.112-20.913,1.9-28.623c-0.105-1.796-1.056-1.796-2.217-0.528
		c-4.226,4.965-9.401,15.844-12.781,22.075l-0.634,3.591c-0.528,2.007-5.915,1.901-5.492,0c2.429-11.724,4.542-23.554,7.394-35.911
		c2.429-10.14,6.02-24.293,12.78-32.215c2.323-2.746,4.964-4.436,7.816-4.436c2.429,0,3.063,0.845,3.274,3.591
		c0.105,1.69-0.105,4.119-0.635,6.971c-2.323,11.936-10.139,31.581-20.807,40.031c-1.162,5.28-2.112,10.456-3.169,15.843
		c3.169-5.809,7.71-15.315,11.724-19.962c2.008-2.324,4.859-2.43,6.338,0.422c2.957,5.81-2.535,20.808-1.901,28.518
		c0.106,1.796,1.162,1.796,2.218,0.528c2.641-3.274,8.661-14.47,11.725-20.808l1.268-2.641
		C198.971,172.862,199.605,173.178,199.393,173.601z M170.77,170.221c10.14-8.556,17.639-27.356,19.857-39.08
		c0.527-2.746,0.738-5.069,0.633-6.76c-0.105-2.746-1.056-3.591-3.273-1.689C179.009,130.613,173.2,158.18,170.77,170.221z"/>
	<path fill="#03573E" d="M216.293,173.601l-1.268,2.535c-3.169,6.231-8.978,17.744-11.724,21.019
		c-3.38,4.119-6.126,2.429-6.971-2.112c-0.74-4.014-0.212-10.352,0.95-15.738c1.056-5.069,1.161-5.492,1.796-8.133
		c0.422-2.007,6.02-2.007,5.492,0c-0.74,3.38-1.584,6.338-2.852,12.992c-0.951,4.646-1.585,9.083-1.479,11.724
		c0.105,2.746,1.161,2.429,2.534,0.845c2.641-3.274,8.556-14.787,11.724-21.019l1.162-2.43
		C215.87,172.862,216.505,173.178,216.293,173.601z M200.133,164.201c0-1.689,1.373-3.169,3.169-3.169
		c1.795,0,3.168,1.479,3.168,3.169c0,1.796-1.373,3.274-3.168,3.274C201.506,167.475,200.133,165.997,200.133,164.201z"/>
	<path fill="#03573E" d="M246.5,173.601l-1.268,2.535c-3.169,6.231-8.978,17.744-11.724,21.019
		c-2.535,2.957-4.648,2.852-6.021,0.739c-1.267-2.007-1.373-5.81-1.373-8.133c0.106-4.542,1.057-9.506,2.113-14.259l-2.43,4.858
		c-1.268,2.43-2.746,4.858-4.014,6.126c-1.9,1.901-4.964,2.535-6.654,0.105c-1.795-2.746-1.268-7.604-0.422-10.668
		c1.268-4.541,4.436-9.928,9.506-10.667c2.007-0.317,4.014,0.211,6.02,1.795l0.424-1.584c0.527-2.007,5.914-1.901,5.492,0
		c-1.902,8.449-6.021,22.181-5.704,30.419c0.105,2.852,1.268,2.323,2.535,0.845c2.64-3.274,8.556-14.787,11.724-21.019l1.162-2.43
		C246.077,172.862,246.711,173.178,246.5,173.601z M230.022,167.792c-3.802-3.062-7.815,4.014-9.083,6.866
		c-2.218,4.753-3.169,10.245-1.479,11.935c0.423,0.423,1.056,0.105,1.796-0.634c1.479-1.584,3.062-4.33,4.33-6.76
		c1.373-2.641,2.218-4.541,3.485-7.182L230.022,167.792z"/>
	<path fill="#03573E" d="M267.835,173.601c-3.062,6.76-6.231,9.189-11.301,11.829c1.584,9.612-3.063,21.547-12.569,23.766
		c-6.654,1.479-8.661-3.38-6.972-8.873c1.268-4.33,4.754-8.238,8.556-10.879c2.007-1.373,4.119-2.429,6.442-3.273
		c0.106-5.81-2.217-13.414-3.59-16.688l-1.902,4.119c-0.211,0.423-0.844,0.105-0.633-0.317l2.112-4.646
		c-2.007-4.647-4.226-11.407-1.268-15.949c0.95-1.479,2.852-2.535,4.542-2.323c2.957,0.316,2.218,4.753,1.795,6.653
		c-0.633,3.169-1.795,6.232-3.062,9.189c2.218,5.069,4.858,11.829,6.442,18.378c4.964-2.641,7.816-4.858,10.773-11.302
		C267.413,172.862,268.046,173.178,267.835,173.601z M251.991,187.015c-1.795,0.634-3.907,1.584-6.02,3.062
		c-3.486,2.535-6.654,5.81-8.133,10.352c-1.373,4.646,0.211,8.978,5.387,5.069C248.823,201.379,251.569,194.831,251.991,187.015z
		 M249.562,165.257c1.162-2.535,2.112-5.599,2.746-8.345c0.423-2.007,0.528-3.908,0.106-4.964c-0.529-1.268-1.585-1.057-2.43-0.211
		C247.134,154.484,248.189,161.666,249.562,165.257z"/>
</g>
<g enable-background="new    ">
	<path fill="#03573E" d="M187.685,267.254c0.428,0.837,0.335,1.596-0.277,2.276c-0.613,0.682-1.445,0.545-2.496-0.408
		c-1.674,1.401-3.576,2.666-5.707,3.795c-2.132,1.129-4.247,2.16-6.35,3.094c-0.896,0.507-1.558,1.018-1.985,1.533
		s-0.798,1.328-1.109,2.438l-1.459,27.675l-1.109-1.431c0.117-4.262,0.345-8.563,0.686-12.903c0.34-4.34,0.375-8.641,0.102-12.903
		c0.155-1.012-0.36-2.306-1.547-3.882c-1.187-1.577-2.55-3.124-4.087-4.642c-1.538-1.519-3.007-2.852-4.408-4
		c-1.401-1.147-2.218-1.81-2.452-1.985c-0.117,0.623-0.691,0.969-1.722,1.037c-1.032,0.068-1.605-0.677-1.722-2.233
		c0-0.876,0.34-1.519,1.021-1.927c0.681-0.409,1.304-0.175,1.868,0.7c0.662,0.817,1.645,1.815,2.949,2.992
		c1.304,1.178,2.646,2.351,4.028,3.518c1.382,1.168,2.661,2.238,3.839,3.212c1.177,0.973,1.96,1.645,2.35,2.014
		c0.097-0.116,0.156-0.593,0.175-1.43c0.019-0.837,0.029-1.431,0.029-1.781c-0.059-0.155-0.355-0.847-0.891-2.072
		c-0.536-1.227-1.182-2.56-1.941-4c-0.759-1.439-1.572-2.792-2.438-4.058c-0.866-1.265-1.649-2.023-2.35-2.276
		c-1.538,0.953-2.355,0.7-2.452-0.76c0.234-1.051,0.973-1.722,2.219-2.014c1.245-0.292,1.654,0.302,1.226,1.78
		c1.479,1.401,2.695,3.153,3.649,5.255s2.102,4.01,3.445,5.722c0.097-0.817,0.307-2.803,0.628-5.955
		c0.321-3.153,0.18-5.343-0.423-6.568c-0.623-0.059-0.998-0.491-1.124-1.299c-0.127-0.808,0.063-1.406,0.569-1.796
		c2.491-0.331,3.27,0.701,2.335,3.095l-0.351,11.735c0.389-0.759,1.377-2.579,2.963-5.459s2.194-5.157,1.824-6.831
		c0.954-2.277,2.092-2.569,3.416-0.876c0.934,1.227,0.885,1.883-0.146,1.971s-1.684,0.54-1.955,1.357
		c-0.838,1.868-1.728,3.688-2.672,5.459c-0.943,1.771-1.824,3.562-2.642,5.371c0.993-1.382,2.993-3.055,5.999-5.021
		c3.008-1.966,4.842-3.387,5.503-4.263c-0.116-0.486,0.258-1.075,1.124-1.766c0.865-0.691,1.639-0.22,2.32,1.415
		c0.156,0.74-0.053,1.339-0.627,1.796s-1.211,0.491-1.912,0.103c-1.83,0.389-4.175,1.79-7.035,4.203
		c-2.861,2.413-4.759,4.438-5.693,6.072l-0.35,2.89c-0.059,0.643,0.447,0.75,1.518,0.321c1.07-0.428,2.359-1.09,3.868-1.985
		c1.508-0.895,3.065-1.868,4.671-2.919s2.904-1.888,3.896-2.511c0.156-1.109,0.618-1.766,1.387-1.97
		C186.63,265.955,187.237,266.32,187.685,267.254z"/>
</g>
<g enable-background="new    ">
	<path fill="#03573E" d="M130.97,352.066l-1.685-5.67l-1.694,5.67l-2.168-6.854h0.379l1.77,5.528l1.713-5.651l1.704,5.651
		l1.77-5.528h0.397L130.97,352.066z"/>
</g>
<g enable-background="new    ">
	<path fill="#03573E" d="M137.531,351.971v-6.759h0.378v6.759H137.531z"/>
</g>
<g enable-background="new    ">
	<path fill="#03573E" d="M142.887,352.047c-0.473,0-0.82-0.205-1.041-0.616l0.331-0.208c0.158,0.291,0.391,0.436,0.701,0.436
		c0.473,0,0.71-0.351,0.71-1.051v-5.396h0.388v5.415C143.976,351.574,143.613,352.047,142.887,352.047z"/>
</g>
<g enable-background="new    ">
	<path fill="#03573E" d="M156.084,345.6v6.371h-0.388V345.6H154.2v-0.388h3.379v0.388H156.084z"/>
</g>
<g enable-background="new    ">
	<path fill="#03573E" d="M164.802,351.971l-2.148-3.38h-0.729v3.38h-0.379v-6.759h1.562c0.252,0,0.492,0.036,0.72,0.108
		c0.227,0.073,0.422,0.181,0.587,0.322c0.164,0.142,0.295,0.317,0.393,0.525s0.147,0.448,0.147,0.72
		c0,0.296-0.046,0.552-0.137,0.767c-0.092,0.215-0.221,0.392-0.388,0.53c-0.167,0.139-0.365,0.241-0.592,0.308
		s-0.477,0.099-0.748,0.099l2.168,3.38H164.802z M164.443,346.315c-0.076-0.161-0.18-0.293-0.312-0.397s-0.287-0.183-0.464-0.236
		s-0.366-0.081-0.568-0.081h-1.174v2.604h1.278c0.404,0,0.73-0.113,0.98-0.341c0.249-0.228,0.374-0.556,0.374-0.984
		C164.556,346.664,164.518,346.476,164.443,346.315z"/>
</g>
<g enable-background="new    ">
	<path fill="#03573E" d="M175.262,351.091c-0.65,0.649-1.486,0.975-2.509,0.975s-1.855-0.322-2.499-0.966
		c-0.65-0.649-0.975-1.486-0.975-2.509c0-1.021,0.322-1.854,0.966-2.499c0.65-0.649,1.486-0.975,2.508-0.975
		c1.017,0,1.853,0.322,2.509,0.966c0.65,0.649,0.975,1.486,0.975,2.508C176.237,349.614,175.913,350.447,175.262,351.091z
		 M174.988,346.368c-0.581-0.581-1.325-0.871-2.234-0.871c-0.896,0-1.634,0.29-2.215,0.871c-0.581,0.58-0.871,1.321-0.871,2.224
		c0,0.903,0.287,1.642,0.861,2.216c0.581,0.58,1.322,0.871,2.225,0.871c0.909,0,1.653-0.284,2.234-0.853
		c0.573-0.574,0.861-1.318,0.861-2.234C175.849,347.683,175.561,346.942,174.988,346.368z"/>
	<path fill="#03573E" d="M183.621,351.602c-0.347,0.29-0.805,0.436-1.372,0.436c-0.549,0-1.008-0.148-1.373-0.445
		c-0.385-0.321-0.578-0.757-0.578-1.306v-5.074h0.379v5.074c0,0.435,0.158,0.775,0.474,1.021c0.29,0.228,0.656,0.341,1.099,0.341
		c0.436,0,0.801-0.116,1.098-0.35c0.322-0.253,0.482-0.59,0.482-1.013v-5.074h0.389v5.074
		C184.218,350.835,184.018,351.274,183.621,351.602z"/>
	<path fill="#03573E" d="M193.693,352.066l-1.685-5.67l-1.695,5.67l-2.168-6.854h0.379l1.771,5.528l1.714-5.651l1.703,5.651
		l1.771-5.528h0.397L193.693,352.066z"/>
</g>
<g enable-background="new    ">
	<path fill="#03573E" d="M201.028,351.971v-6.759h3.247v0.388h-2.858v2.462h2.858v0.416h-2.858v3.105h2.858v0.388H201.028z"/>
</g>
<g enable-background="new    ">
	<path fill="#03573E" d="M208.867,346.235v5.736h-0.378v-6.807l5.045,5.917v-5.869h0.389v6.872L208.867,346.235z"/>
</g>
<g enable-background="new    ">
	<path fill="#03573E" d="M121.968,374.69v-6.371h-1.146l0.256-0.388h1.278v6.759H121.968z"/>
</g>
<g enable-background="new    ">
	<path fill="#03573E" d="M131.348,373.592c-0.454,0.795-1.098,1.192-1.931,1.192c-0.827,0-1.467-0.4-1.921-1.202
		c-0.373-0.656-0.559-1.433-0.559-2.329c0-0.902,0.186-1.682,0.559-2.338c0.454-0.802,1.095-1.202,1.921-1.202
		s1.467,0.4,1.922,1.202c0.372,0.669,0.559,1.448,0.559,2.338C131.898,372.163,131.715,372.942,131.348,373.592z M131.046,369.2
		c-0.373-0.732-0.915-1.099-1.628-1.099c-0.637,0-1.152,0.328-1.543,0.985c-0.347,0.593-0.521,1.315-0.521,2.167
		c0,0.776,0.148,1.455,0.445,2.035c0.379,0.732,0.918,1.099,1.619,1.099c0.65,0,1.167-0.325,1.553-0.976
		c0.347-0.574,0.521-1.293,0.521-2.158C131.49,370.465,131.342,369.78,131.046,369.2z"/>
</g>
<g enable-background="new    ">
	<path fill="#03573E" d="M149.193,374.69l-1.439-5.68l-2.225,5.85L143.304,369l-1.448,5.689h-0.388l1.761-6.958l2.3,6.03l2.3-6.039
		l1.761,6.967H149.193z"/>
</g>
<g enable-background="new    ">
	<path fill="#03573E" d="M158.498,374.69l-0.776-2.025h-3.076l-0.786,2.025h-0.378l2.698-6.977l2.708,6.977H158.498z
		 M156.178,368.698l-1.382,3.578h2.764L156.178,368.698z"/>
</g>
<g enable-background="new    ">
	<path fill="#03573E" d="M167.898,374.69l-0.776-2.025h-3.076l-0.786,2.025h-0.378l2.698-6.977l2.708,6.977H167.898z
		 M165.578,368.698l-1.382,3.578h2.764L165.578,368.698z"/>
</g>
<g enable-background="new    ">
	<path fill="#03573E" d="M175.516,374.69l-2.148-3.38h-0.729v3.38h-0.379v-6.759h1.562c0.252,0,0.492,0.036,0.719,0.108
		c0.228,0.073,0.423,0.181,0.588,0.322c0.164,0.142,0.295,0.317,0.393,0.525s0.146,0.448,0.146,0.72
		c0,0.296-0.046,0.552-0.137,0.767c-0.092,0.215-0.222,0.392-0.389,0.53c-0.168,0.139-0.365,0.241-0.592,0.308
		s-0.477,0.099-0.748,0.099l2.168,3.38H175.516z M175.157,369.034c-0.075-0.161-0.18-0.293-0.312-0.397
		c-0.132-0.104-0.287-0.183-0.463-0.236c-0.178-0.054-0.367-0.081-0.568-0.081h-1.174v2.604h1.277c0.404,0,0.73-0.113,0.98-0.341
		c0.249-0.228,0.373-0.556,0.373-0.984C175.27,369.382,175.233,369.195,175.157,369.034z"/>
</g>
<g enable-background="new    ">
	<path fill="#03573E" d="M181.415,368.319v6.371h-0.388v-6.371h-1.496v-0.388h3.38v0.388H181.415z"/>
	<path fill="#03573E" d="M195.737,371.292c-0.057,0.069-0.143,0.172-0.256,0.308s-0.259,0.305-0.436,0.507l-1.94,2.196h3.237v0.388
		h-4.089l3.313-3.834c0.265-0.379,0.396-0.772,0.396-1.183c0-0.398-0.157-0.735-0.473-1.014c-0.316-0.271-0.682-0.407-1.098-0.407
		c-0.512,0-0.912,0.165-1.203,0.493c-0.176,0.195-0.299,0.438-0.369,0.729h-0.426c0.045-0.328,0.209-0.653,0.492-0.975
		c0.379-0.417,0.881-0.625,1.506-0.625c0.535,0,0.996,0.167,1.381,0.502c0.386,0.328,0.578,0.76,0.578,1.297
		C196.352,370.222,196.147,370.761,195.737,371.292z"/>
</g>
<g enable-background="new    ">
	<path fill="#03573E" d="M205.657,373.592c-0.453,0.795-1.098,1.192-1.931,1.192c-0.827,0-1.468-0.4-1.921-1.202
		c-0.373-0.656-0.559-1.433-0.559-2.329c0-0.902,0.186-1.682,0.559-2.338c0.453-0.802,1.094-1.202,1.921-1.202
		s1.468,0.4,1.922,1.202c0.372,0.669,0.559,1.448,0.559,2.338C206.207,372.163,206.024,372.942,205.657,373.592z M205.354,369.2
		c-0.372-0.732-0.914-1.099-1.628-1.099c-0.638,0-1.151,0.328-1.543,0.985c-0.347,0.593-0.521,1.315-0.521,2.167
		c0,0.776,0.148,1.455,0.445,2.035c0.379,0.732,0.918,1.099,1.618,1.099c0.649,0,1.167-0.325,1.553-0.976
		c0.347-0.574,0.521-1.293,0.521-2.158C205.8,370.465,205.651,369.78,205.354,369.2z"/>
</g>
<g enable-background="new    ">
	<path fill="#03573E" d="M210.911,374.69v-6.371h-1.146l0.256-0.388h1.278v6.759H210.911z"/>
</g>
<g enable-background="new    ">
	<path fill="#03573E" d="M219.28,374.273c-0.373,0.36-0.843,0.54-1.411,0.54c-0.574,0-1.048-0.177-1.42-0.53
		c-0.372-0.359-0.558-0.823-0.558-1.392c0-0.41,0.109-0.772,0.33-1.088c0.221-0.31,0.531-0.54,0.928-0.691
		c-0.314-0.095-0.567-0.297-0.757-0.605c-0.183-0.297-0.274-0.612-0.274-0.947c0-0.511,0.16-0.928,0.482-1.249
		c0.322-0.328,0.738-0.492,1.25-0.492c0.518,0,0.938,0.16,1.259,0.482s0.483,0.741,0.483,1.259c0,0.354-0.096,0.676-0.285,0.966
		c-0.183,0.284-0.441,0.479-0.775,0.587c0.34,0.126,0.618,0.306,0.832,0.539c0.311,0.329,0.465,0.742,0.465,1.24
		C219.829,373.453,219.645,373.914,219.28,374.273z M218.977,371.793c-0.158-0.158-0.33-0.282-0.517-0.374s-0.39-0.138-0.61-0.138
		c-0.215,0-0.414,0.046-0.597,0.138s-0.354,0.213-0.511,0.364c-0.316,0.315-0.474,0.685-0.474,1.107c0,0.43,0.148,0.792,0.444,1.089
		c0.304,0.303,0.682,0.454,1.137,0.454c0.461,0,0.839-0.145,1.136-0.436c0.31-0.29,0.464-0.659,0.464-1.107
		C219.45,372.462,219.292,372.096,218.977,371.793z M218.825,368.584c-0.259-0.259-0.584-0.389-0.975-0.389
		c-0.385,0-0.707,0.13-0.966,0.389s-0.388,0.584-0.388,0.975c0,0.379,0.129,0.697,0.388,0.956c0.126,0.127,0.271,0.23,0.431,0.312
		c0.161,0.082,0.34,0.123,0.535,0.123c0.201,0,0.383-0.038,0.544-0.113c0.161-0.076,0.305-0.177,0.431-0.303
		c0.259-0.259,0.389-0.584,0.389-0.976C219.214,369.168,219.084,368.843,218.825,368.584z"/>
</g>
</svg>
