<?xml version="1.0" encoding="utf-8"?>
<!-- Generator: Adobe Illustrator 15.0.0, SVG Export Plug-In . SVG Version: 6.00 Build 0)  -->
<!DOCTYPE svg PUBLIC "-//W3C//DTD SVG 1.1//EN" "http://www.w3.org/Graphics/SVG/1.1/DTD/svg11.dtd">
<svg version="1.1" id="Layer_1" xmlns="http://www.w3.org/2000/svg" xmlns:xlink="http://www.w3.org/1999/xlink" x="0px" y="0px"
	 width="339.639px" height="165.236px" viewBox="0 0 339.639 165.236" enable-background="new 0 0 339.639 165.236"
	 xml:space="preserve">
<g enable-background="new    ">
	<path fill="#03573E" d="M106.607,20.719c-2.113,2.746-6.337,2.958-10.879,2.535c-1.584,6.231-3.063,12.463-4.436,18.801
		C88.968,53.567,87.384,65.08,88.862,71.1c0.528,2.007,1.162,2.007,2.324,0.316c2.007-3.062,7.182-12.252,10.14-18.589l2.324-4.859
		c0.211-0.422,0.845-0.105,0.634,0.317l-2.324,4.858c-2.958,6.337-8.133,15.632-10.14,18.59c-1.056,1.584-1.901,2.218-3.802,1.689
		c-6.549-1.901-4.964-17.321-1.901-32.32c1.268-6.337,2.746-12.463,4.331-18.694c-4.542-0.739-8.767-0.951-9.928,0.422
		c-0.317,0.423-0.845-0.105-0.528-0.422c1.584-1.796,6.021-1.796,10.773-1.057l1.268-4.647c0.528-2.112,5.915-2.007,5.387,0
		l-1.374,5.387c4.331,0.528,8.239,0.528,10.034-1.795C106.29,19.979,106.818,20.402,106.607,20.719z"/>
	<path fill="#03573E" d="M121.181,48.286l-1.268,2.535c-3.168,6.231-8.978,17.744-11.724,21.019
		c-3.38,4.119-6.126,2.429-6.971-2.112c-0.739-4.014-0.211-10.352,0.951-15.738c1.056-5.069,1.162-5.492,1.795-8.133
		c0.422-2.007,6.021-2.007,5.492,0c-0.739,3.38-1.584,6.338-2.852,12.992c-0.951,4.646-1.584,9.083-1.479,11.724
		c0.105,2.746,1.162,2.429,2.535,0.845c2.641-3.274,8.555-14.787,11.724-21.019l1.162-2.43
		C120.759,47.547,121.393,47.863,121.181,48.286z M105.021,38.885c0-1.689,1.373-3.169,3.169-3.169c1.795,0,3.168,1.479,3.168,3.169
		c0,1.796-1.373,3.274-3.168,3.274C106.394,42.16,105.021,40.681,105.021,38.885z"/>
	<path fill="#03573E" d="M153.711,48.286l-1.479,2.957c-3.168,6.232-8.767,17.322-11.407,20.597
		c-0.951,1.161-1.69,1.373-3.168,1.056c-7.394-1.689-2.958-21.44-2.112-26.193c1.373-7.5-0.951-4.226-2.958-0.634
		c-3.274,5.703-5.387,11.407-8.027,17.427c-0.739,1.585-1.268,3.274-3.38,3.169c-3.168-0.105-3.485-3.696-3.063-6.549
		c0.634-4.753,1.69-9.822,2.641-14.259c0.528-2.007,5.915-2.007,5.492,0c-0.105,0.317-5.492,24.398-2.641,18.062
		c2.852-6.231,5.07-12.252,8.344-18.272c1.056-1.796,2.218-3.803,3.063-4.542c0.845-0.739,1.901-0.845,3.168-0.316
		c3.169,1.479,2.852,6.549,2.43,9.4c-1.479,8.449-3.063,19.223-2.007,21.652c0.422,0.95,1.267,0,1.584-0.423
		c2.641-3.38,8.556-14.787,11.724-21.019l1.162-2.43C153.289,47.547,153.923,47.863,153.711,48.286z"/>
	<path fill="#03573E" d="M175.364,48.286c-2.746,5.281-5.915,10.562-11.196,14.682c-2.852,2.218-6.971,3.38-9.823,0.211
		c-5.704-6.231-1.056-23.131,6.548-25.35c1.796-0.527,4.753,0,5.598,1.901c0.739,1.69-0.422,3.697-2.112,4.753
		c-1.69,1.057-3.803,1.585-5.704,1.585c-1.268,2.852-2.958,11.724-0.951,15.737c1.373,2.746,3.908,2.112,6.021,0.528
		c4.647-3.38,8.238-8.872,10.984-14.365C174.942,47.547,175.575,47.863,175.364,48.286z M158.993,45.329
		c1.69,0,3.485-0.528,4.964-1.373c2.641-1.796,2.641-5.281-0.105-4.647C161.95,39.73,160.26,42.16,158.993,45.329z"/>
	<path fill="#03573E" d="M223.421,48.286c-2.746,5.281-5.914,10.562-11.195,14.682c-2.852,2.218-6.971,3.38-9.822,0.211
		c-5.704-6.231-1.057-23.131,6.548-25.35c1.796-0.527,4.753,0,5.599,1.901c0.738,1.69-0.423,3.697-2.113,4.753
		c-1.689,1.057-3.803,1.585-5.703,1.585c-1.268,2.852-2.957,11.724-0.951,15.737c1.373,2.746,3.908,2.112,6.021,0.528
		c4.646-3.38,8.238-8.872,10.984-14.365C222.999,47.547,223.633,47.863,223.421,48.286z M207.05,45.329
		c1.69,0,3.486-0.528,4.965-1.373c2.641-1.796,2.641-5.281-0.105-4.647C210.008,39.73,208.317,42.16,207.05,45.329z"/>
	<path fill="#03573E" d="M255.952,48.286l-1.479,2.957c-3.169,6.232-8.768,17.322-11.408,20.597
		c-0.95,1.161-1.689,1.373-3.168,1.056c-7.394-1.689-2.957-21.44-2.112-26.193c1.373-7.5-0.95-4.226-2.958-0.634
		c-3.273,5.703-5.387,11.407-8.027,17.427c-0.738,1.585-1.268,3.274-3.379,3.169c-3.169-0.105-3.486-3.696-3.063-6.549
		c0.634-4.753,1.69-9.822,2.641-14.259c0.528-2.007,5.915-2.007,5.492,0c-0.105,0.317-5.492,24.398-2.641,18.062
		c2.853-6.231,5.069-12.252,8.345-18.272c1.056-1.796,2.218-3.803,3.062-4.542c0.846-0.739,1.901-0.845,3.168-0.316
		c3.17,1.479,2.853,6.549,2.43,9.4c-1.479,8.449-3.062,19.223-2.006,21.652c0.422,0.95,1.267,0,1.584-0.423
		c2.641-3.38,8.555-14.787,11.724-21.019l1.162-2.43C255.529,47.547,256.163,47.863,255.952,48.286z"/>
</g>
<g enable-background="new    ">
	<path fill="#03573E" d="M116.904,108.072l-1.267,2.535c-3.169,6.337-8.978,17.744-11.724,21.019
		c-0.951,1.056-1.795,1.479-3.063,1.056c-7.394-2.429-3.063-21.44-2.218-26.193c1.901-10.034-2.957-0.74-4.647,2.534
		c-3.274,6.338-5.598,12.041-5.809,12.569c-0.951,2.218-5.175,1.901-5.175-0.211c0.105-3.169,3.168-18.167-0.422-10.457
		c-1.796,3.908-3.38,8.238-5.176,12.357c-0.739,1.585-1.373,3.274-3.485,3.169c-3.168-0.105-3.485-3.696-3.063-6.549
		c0.634-4.753,1.69-9.822,2.641-14.259c0.528-2.007,5.915-2.007,5.492,0c-0.105,0.317-5.387,24.398-2.535,18.062
		c1.901-4.33,3.591-8.978,5.492-13.202c0.845-2.007,2.324-3.908,4.014-3.803c4.753,0.316,3.168,8.767,2.641,11.936
		c1.056-2.535,2.852-6.232,4.753-9.929c0.95-1.796,3.38-6.549,4.753-7.816c0.951-0.739,1.901-0.845,3.168-0.316
		c3.274,1.479,2.958,6.549,2.429,9.4c-1.373,8.449-3.063,19.223-1.901,21.652c0.422,0.95,1.162,0,1.584-0.423
		c2.641-3.274,8.556-14.787,11.724-21.019l1.162-2.43C116.482,107.333,117.115,107.649,116.904,108.072z"/>
	<path fill="#03573E" d="M147.112,108.072l-1.267,2.535c-3.169,6.231-8.978,17.744-11.724,21.019
		c-2.535,2.957-4.647,2.852-6.021,0.739c-1.268-2.007-1.373-5.81-1.373-8.133c0.105-4.542,1.056-9.506,2.112-14.259l-2.429,4.858
		c-1.267,2.43-2.746,4.858-4.014,6.126c-1.901,1.901-4.964,2.535-6.654,0.105c-1.796-2.746-1.268-7.604-0.423-10.668
		c1.268-4.541,4.437-9.928,9.506-10.667c2.006-0.317,4.013,0.211,6.02,1.795l0.423-1.584c0.528-2.007,5.915-1.901,5.492,0
		c-1.901,8.449-6.021,22.181-5.704,30.419c0.105,2.852,1.268,2.323,2.535,0.845c2.641-3.274,8.556-14.787,11.724-21.019l1.162-2.43
		C146.69,107.333,147.323,107.649,147.112,108.072z M130.635,102.262c-3.803-3.062-7.816,4.014-9.083,6.866
		c-2.218,4.753-3.168,10.245-1.479,11.935c0.423,0.423,1.057,0.105,1.796-0.634c1.479-1.584,3.063-4.33,4.331-6.76
		c1.373-2.641,2.218-4.541,3.485-7.182L130.635,102.262z"/>
	<path fill="#03573E" d="M167.92,80.505c-2.113,2.746-6.337,2.958-10.879,2.535c-1.584,6.231-3.063,12.463-4.437,18.801
		c-2.323,11.513-3.908,23.025-2.429,29.046c0.528,2.007,1.162,2.007,2.324,0.316c2.007-3.062,7.182-12.252,10.14-18.589l2.324-4.859
		c0.211-0.422,0.845-0.105,0.634,0.317l-2.324,4.858c-2.958,6.337-8.133,15.632-10.14,18.59c-1.056,1.584-1.901,2.218-3.802,1.689
		c-6.549-1.901-4.964-17.321-1.901-32.32c1.268-6.337,2.746-12.463,4.331-18.694c-4.542-0.739-8.767-0.951-9.929,0.422
		c-0.316,0.423-0.845-0.105-0.528-0.422c1.584-1.796,6.021-1.796,10.773-1.057l1.268-4.647c0.528-2.112,5.915-2.007,5.386,0
		l-1.373,5.387c4.331,0.528,8.239,0.528,10.034-1.795C167.603,79.765,168.131,80.188,167.92,80.505z"/>
	<path fill="#03573E" d="M199.393,108.072l-1.268,2.535c-3.168,6.337-9.083,17.744-11.829,21.019
		c-1.901,2.323-4.858,2.429-6.337-0.317c-3.169-5.809,2.112-20.913,1.9-28.623c-0.105-1.796-1.056-1.796-2.217-0.528
		c-4.226,4.965-9.401,15.844-12.781,22.075l-0.634,3.591c-0.528,2.007-5.915,1.901-5.492,0c2.429-11.724,4.542-23.554,7.394-35.911
		c2.429-10.14,6.02-24.293,12.78-32.215c2.323-2.746,4.964-4.436,7.816-4.436c2.429,0,3.063,0.845,3.274,3.591
		c0.105,1.69-0.105,4.119-0.635,6.971c-2.323,11.936-10.139,31.581-20.807,40.031c-1.162,5.28-2.112,10.456-3.169,15.843
		c3.169-5.809,7.71-15.315,11.724-19.962c2.008-2.324,4.859-2.43,6.338,0.422c2.957,5.81-2.535,20.808-1.901,28.518
		c0.106,1.796,1.162,1.796,2.218,0.528c2.641-3.274,8.661-14.47,11.725-20.808l1.268-2.641
		C198.971,107.333,199.605,107.649,199.393,108.072z M170.77,104.692c10.14-8.556,17.639-27.356,19.857-39.08
		c0.527-2.746,0.738-5.069,0.633-6.76c-0.105-2.746-1.056-3.591-3.273-1.689C179.009,65.084,173.2,92.651,170.77,104.692z"/>
	<path fill="#03573E" d="M216.293,108.072l-1.268,2.535c-3.169,6.231-8.978,17.744-11.724,21.019
		c-3.38,4.119-6.126,2.429-6.971-2.112c-0.74-4.014-0.212-10.352,0.95-15.738c1.056-5.069,1.161-5.492,1.796-8.133
		c0.422-2.007,6.02-2.007,5.492,0c-0.74,3.38-1.584,6.338-2.852,12.992c-0.951,4.646-1.585,9.083-1.479,11.724
		c0.105,2.746,1.161,2.429,2.534,0.845c2.641-3.274,8.556-14.787,11.724-21.019l1.162-2.43
		C215.87,107.333,216.505,107.649,216.293,108.072z M200.133,98.672c0-1.689,1.373-3.169,3.169-3.169
		c1.795,0,3.168,1.479,3.168,3.169c0,1.796-1.373,3.274-3.168,3.274C201.506,101.946,200.133,100.468,200.133,98.672z"/>
	<path fill="#03573E" d="M246.5,108.072l-1.268,2.535c-3.169,6.231-8.978,17.744-11.724,21.019
		c-2.535,2.957-4.648,2.852-6.021,0.739c-1.267-2.007-1.373-5.81-1.373-8.133c0.106-4.542,1.057-9.506,2.113-14.259l-2.43,4.858
		c-1.268,2.43-2.746,4.858-4.014,6.126c-1.9,1.901-4.964,2.535-6.654,0.105c-1.795-2.746-1.268-7.604-0.422-10.668
		c1.268-4.541,4.436-9.928,9.506-10.667c2.007-0.317,4.014,0.211,6.02,1.795l0.424-1.584c0.527-2.007,5.914-1.901,5.492,0
		c-1.902,8.449-6.021,22.181-5.704,30.419c0.105,2.852,1.268,2.323,2.535,0.845c2.64-3.274,8.556-14.787,11.724-21.019l1.162-2.43
		C246.077,107.333,246.711,107.649,246.5,108.072z M230.022,102.262c-3.802-3.062-7.815,4.014-9.083,6.866
		c-2.218,4.753-3.169,10.245-1.479,11.935c0.423,0.423,1.056,0.105,1.796-0.634c1.479-1.584,3.062-4.33,4.33-6.76
		c1.373-2.641,2.218-4.541,3.485-7.182L230.022,102.262z"/>
	<path fill="#03573E" d="M267.835,108.072c-3.062,6.76-6.231,9.189-11.301,11.829c1.584,9.612-3.063,21.547-12.569,23.766
		c-6.654,1.479-8.661-3.38-6.972-8.873c1.268-4.33,4.754-8.238,8.556-10.879c2.007-1.373,4.119-2.429,6.442-3.273
		c0.106-5.81-2.217-13.414-3.59-16.688l-1.902,4.119c-0.211,0.423-0.844,0.105-0.633-0.317l2.112-4.646
		c-2.007-4.647-4.226-11.407-1.268-15.949c0.95-1.479,2.852-2.535,4.542-2.323c2.957,0.316,2.218,4.753,1.795,6.653
		c-0.633,3.169-1.795,6.232-3.062,9.189c2.218,5.069,4.858,11.829,6.442,18.378c4.964-2.641,7.816-4.858,10.773-11.302
		C267.413,107.333,268.046,107.649,267.835,108.072z M251.991,121.486c-1.795,0.634-3.907,1.584-6.02,3.062
		c-3.486,2.535-6.654,5.81-8.133,10.352c-1.373,4.646,0.211,8.978,5.387,5.069C248.823,135.85,251.569,129.302,251.991,121.486z
		 M249.562,99.728c1.162-2.535,2.112-5.599,2.746-8.345c0.423-2.007,0.528-3.908,0.106-4.964c-0.529-1.268-1.585-1.057-2.43-0.211
		C247.134,88.955,248.189,96.136,249.562,99.728z"/>
</g>
</svg>
